# xmcd
#
# Track frame offsets:
#	150
#	16117
#	30679
#	52790
#	68009
#	83224
#	93145
#	108081
#	122835
#	138992
#	149552
#	167672
#	182750
#
# Disc length: 2665 seconds
#
# Revision: 0
# Processed by: cddbd v1.5.1PL2 Copyright (c) Steve Scherf et al.
# Submitted via: dBpowerAMP V4.0
#
DISCID=a00a670d
DTITLE=Ugly Duckling - Journey to Anywhere
DYEAR=2000
DGENRE=Hip-Hop
TTITLE0=Introduckling 
TTITLE1=I Did It Like This  
TTITLE2=Journey To Anywhere 
TTITLE3=Friday Night 
TTITLE4=A Little Samba
TTITLE5=The Pike 
TTITLE6=Eye On The Gold Chain/The Piano Bar 
TTITLE7=Pick-Up Lines
TTITLE8=Oasis
TTITLE9=Dizzy/Ugly What?
TTITLE10=Down The Road
TTITLE11=Lay It On Ya 
TTITLE12=Rock On Top/By Your Command 
EXTD=should have track 14
EXTT0=
EXTT1=
EXTT2=
EXTT3=
EXTT4=
EXTT5=
EXTT6=
EXTT7=
EXTT8=
EXTT9=
EXTT10=
EXTT11=
EXTT12=
PLAYORDER=
